<mxfile host="app.diagrams.net" modified="2022-10-08T06:49:23.683Z" agent="5.0 (Windows NT 10.0; Win64; x64) AppleWebKit/537.36 (KHTML, like Gecko) Chrome/96.0.4664.45 Safari/537.36" etag="ZT-_obso3slvDLY5rNCt" version="20.4.0" type="github">
  <diagram id="HCGJRtp_VxddTuXzh4dq" name="第 1 页">
    <mxGraphModel dx="1185" dy="588" grid="0" gridSize="10" guides="1" tooltips="1" connect="1" arrows="1" fold="1" page="1" pageScale="1" pageWidth="700" pageHeight="400" background="#114B5F" math="0" shadow="0">
      <root>
        <mxCell id="0" />
        <mxCell id="1" parent="0" />
        <mxCell id="9ugnmiPrSNK5Q0_UZhDV-1" value="&lt;font style=&quot;font-size: 20px;&quot;&gt;JSON&lt;/font&gt;&lt;br&gt;(数据+配置)" style="ellipse;whiteSpace=wrap;html=1;fillColor=#F45B69;strokeColor=#028090;fontColor=#E4FDE1;" vertex="1" parent="1">
          <mxGeometry x="289" y="165" width="120" height="70" as="geometry" />
        </mxCell>
        <mxCell id="9ugnmiPrSNK5Q0_UZhDV-2" value="结构" style="rounded=1;whiteSpace=wrap;html=1;fillColor=#F45B69;strokeColor=none;fontColor=#E4FDE1;fontSize=14;" vertex="1" parent="1">
          <mxGeometry x="69" y="80" width="80" height="40" as="geometry" />
        </mxCell>
        <mxCell id="9ugnmiPrSNK5Q0_UZhDV-3" value="样式" style="rounded=1;whiteSpace=wrap;html=1;fillColor=#F45B69;strokeColor=none;fontSize=14;fontColor=#E4FDE1;" vertex="1" parent="1">
          <mxGeometry x="69" y="130" width="80" height="40" as="geometry" />
        </mxCell>
        <mxCell id="9ugnmiPrSNK5Q0_UZhDV-22" style="edgeStyle=orthogonalEdgeStyle;rounded=0;orthogonalLoop=1;jettySize=auto;html=1;exitX=1;exitY=0.5;exitDx=0;exitDy=0;dashed=1;strokeColor=#028090;strokeWidth=2;labelBackgroundColor=#114B5F;fontColor=#E4FDE1;" edge="1" parent="1" source="9ugnmiPrSNK5Q0_UZhDV-4">
          <mxGeometry relative="1" as="geometry">
            <mxPoint x="189" y="199.8965517241379" as="targetPoint" />
          </mxGeometry>
        </mxCell>
        <mxCell id="9ugnmiPrSNK5Q0_UZhDV-4" value="文本数据" style="rounded=1;whiteSpace=wrap;html=1;fillColor=#F45B69;strokeColor=none;fontSize=14;fontColor=#E4FDE1;" vertex="1" parent="1">
          <mxGeometry x="69" y="180" width="80" height="40" as="geometry" />
        </mxCell>
        <mxCell id="9ugnmiPrSNK5Q0_UZhDV-5" value="图片数据" style="rounded=1;whiteSpace=wrap;html=1;fillColor=#F45B69;strokeColor=none;fontSize=14;fontColor=#E4FDE1;" vertex="1" parent="1">
          <mxGeometry x="69" y="230" width="80" height="40" as="geometry" />
        </mxCell>
        <mxCell id="9ugnmiPrSNK5Q0_UZhDV-7" value="" style="endArrow=none;dashed=1;html=1;dashPattern=1 3;strokeWidth=2;rounded=0;labelBackgroundColor=#114B5F;strokeColor=#028090;fontColor=#E4FDE1;" edge="1" parent="1">
          <mxGeometry width="50" height="50" relative="1" as="geometry">
            <mxPoint x="108.91" y="350" as="sourcePoint" />
            <mxPoint x="108.66" y="330" as="targetPoint" />
            <Array as="points">
              <mxPoint x="109.16" y="330" />
            </Array>
          </mxGeometry>
        </mxCell>
        <mxCell id="9ugnmiPrSNK5Q0_UZhDV-15" value="视频数据" style="rounded=1;whiteSpace=wrap;html=1;fillColor=#F45B69;strokeColor=none;fontSize=14;fontColor=#E4FDE1;" vertex="1" parent="1">
          <mxGeometry x="69" y="280" width="80" height="40" as="geometry" />
        </mxCell>
        <mxCell id="9ugnmiPrSNK5Q0_UZhDV-16" value="" style="endArrow=classic;html=1;rounded=0;dashed=1;exitX=1;exitY=0.5;exitDx=0;exitDy=0;strokeWidth=2;strokeColor=#028090;labelBackgroundColor=#114B5F;fontColor=#E4FDE1;" edge="1" parent="1" source="9ugnmiPrSNK5Q0_UZhDV-2">
          <mxGeometry width="50" height="50" relative="1" as="geometry">
            <mxPoint x="169" y="110" as="sourcePoint" />
            <mxPoint x="199" y="180" as="targetPoint" />
          </mxGeometry>
        </mxCell>
        <mxCell id="9ugnmiPrSNK5Q0_UZhDV-17" value="" style="endArrow=classic;html=1;rounded=0;dashed=1;exitX=1;exitY=0.5;exitDx=0;exitDy=0;strokeColor=#028090;strokeWidth=2;labelBackgroundColor=#114B5F;fontColor=#E4FDE1;" edge="1" parent="1" source="9ugnmiPrSNK5Q0_UZhDV-3">
          <mxGeometry width="50" height="50" relative="1" as="geometry">
            <mxPoint x="169" y="155" as="sourcePoint" />
            <mxPoint x="189" y="190" as="targetPoint" />
          </mxGeometry>
        </mxCell>
        <mxCell id="9ugnmiPrSNK5Q0_UZhDV-18" value="" style="endArrow=classic;html=1;rounded=0;dashed=1;exitX=1;exitY=0.5;exitDx=0;exitDy=0;strokeColor=#028090;strokeWidth=2;labelBackgroundColor=#114B5F;fontColor=#E4FDE1;" edge="1" parent="1" source="9ugnmiPrSNK5Q0_UZhDV-15">
          <mxGeometry width="50" height="50" relative="1" as="geometry">
            <mxPoint x="169" y="280" as="sourcePoint" />
            <mxPoint x="199" y="220" as="targetPoint" />
          </mxGeometry>
        </mxCell>
        <mxCell id="9ugnmiPrSNK5Q0_UZhDV-19" value="" style="endArrow=classic;html=1;rounded=0;dashed=1;exitX=1;exitY=0.5;exitDx=0;exitDy=0;strokeColor=#028090;strokeWidth=2;labelBackgroundColor=#114B5F;fontColor=#E4FDE1;" edge="1" parent="1" source="9ugnmiPrSNK5Q0_UZhDV-5">
          <mxGeometry width="50" height="50" relative="1" as="geometry">
            <mxPoint x="169" y="245" as="sourcePoint" />
            <mxPoint x="189" y="210" as="targetPoint" />
          </mxGeometry>
        </mxCell>
        <mxCell id="9ugnmiPrSNK5Q0_UZhDV-20" value="" style="shape=flexArrow;endArrow=classic;html=1;rounded=0;strokeColor=#028090;fillColor=none;strokeWidth=3;labelBackgroundColor=#114B5F;fontColor=#E4FDE1;" edge="1" parent="1">
          <mxGeometry width="50" height="50" relative="1" as="geometry">
            <mxPoint x="199" y="199.66" as="sourcePoint" />
            <mxPoint x="279" y="200" as="targetPoint" />
          </mxGeometry>
        </mxCell>
        <mxCell id="9ugnmiPrSNK5Q0_UZhDV-23" value="" style="shape=flexArrow;endArrow=classic;html=1;rounded=0;strokeColor=#DDA15E;strokeWidth=3;fillColor=none;labelBackgroundColor=#114B5F;fontColor=#E4FDE1;" edge="1" parent="1">
          <mxGeometry width="50" height="50" relative="1" as="geometry">
            <mxPoint x="419" y="200" as="sourcePoint" />
            <mxPoint x="498" y="199.65999999999997" as="targetPoint" />
          </mxGeometry>
        </mxCell>
        <mxCell id="9ugnmiPrSNK5Q0_UZhDV-24" value="结构" style="rounded=1;whiteSpace=wrap;html=1;fillColor=#BC6C25;strokeColor=none;fontSize=14;fontColor=#FEFAE0;" vertex="1" parent="1">
          <mxGeometry x="548" y="80" width="80" height="40" as="geometry" />
        </mxCell>
        <mxCell id="9ugnmiPrSNK5Q0_UZhDV-25" value="样式" style="rounded=1;whiteSpace=wrap;html=1;fontSize=14;fillColor=#BC6C25;strokeColor=none;fontColor=#FEFAE0;" vertex="1" parent="1">
          <mxGeometry x="548" y="130" width="80" height="40" as="geometry" />
        </mxCell>
        <mxCell id="9ugnmiPrSNK5Q0_UZhDV-27" value="文本数据" style="rounded=1;whiteSpace=wrap;html=1;fontSize=14;fillColor=#BC6C25;strokeColor=none;fontColor=#FEFAE0;" vertex="1" parent="1">
          <mxGeometry x="548" y="180" width="80" height="40" as="geometry" />
        </mxCell>
        <mxCell id="9ugnmiPrSNK5Q0_UZhDV-28" value="图片数据" style="rounded=1;whiteSpace=wrap;html=1;fontSize=14;fillColor=#BC6C25;strokeColor=none;fontColor=#FEFAE0;" vertex="1" parent="1">
          <mxGeometry x="548" y="230" width="80" height="40" as="geometry" />
        </mxCell>
        <mxCell id="9ugnmiPrSNK5Q0_UZhDV-29" value="" style="endArrow=none;dashed=1;html=1;dashPattern=1 3;strokeWidth=2;rounded=0;labelBackgroundColor=#114B5F;strokeColor=#028090;fontColor=#E4FDE1;" edge="1" parent="1">
          <mxGeometry width="50" height="50" relative="1" as="geometry">
            <mxPoint x="587.9100000000001" y="349.9999999999999" as="sourcePoint" />
            <mxPoint x="587.6600000000001" y="329.9999999999999" as="targetPoint" />
            <Array as="points">
              <mxPoint x="588.16" y="330" />
            </Array>
          </mxGeometry>
        </mxCell>
        <mxCell id="9ugnmiPrSNK5Q0_UZhDV-30" value="视频数据" style="rounded=1;whiteSpace=wrap;html=1;fontSize=14;fillColor=#BC6C25;strokeColor=none;fontColor=#FEFAE0;" vertex="1" parent="1">
          <mxGeometry x="548" y="280" width="80" height="40" as="geometry" />
        </mxCell>
        <mxCell id="9ugnmiPrSNK5Q0_UZhDV-35" value="" style="endArrow=classic;html=1;rounded=0;dashed=1;entryX=0;entryY=0.5;entryDx=0;entryDy=0;strokeColor=#DDA15E;strokeWidth=2;labelBackgroundColor=#283618;fontColor=#FEFAE0;" edge="1" parent="1" target="9ugnmiPrSNK5Q0_UZhDV-24">
          <mxGeometry width="50" height="50" relative="1" as="geometry">
            <mxPoint x="498" y="180" as="sourcePoint" />
            <mxPoint x="548" y="90" as="targetPoint" />
          </mxGeometry>
        </mxCell>
        <mxCell id="9ugnmiPrSNK5Q0_UZhDV-36" value="" style="endArrow=classic;html=1;rounded=0;dashed=1;entryX=0;entryY=0.5;entryDx=0;entryDy=0;strokeColor=#DDA15E;strokeWidth=2;labelBackgroundColor=#283618;fontColor=#FEFAE0;" edge="1" parent="1" target="9ugnmiPrSNK5Q0_UZhDV-25">
          <mxGeometry width="50" height="50" relative="1" as="geometry">
            <mxPoint x="508" y="190" as="sourcePoint" />
            <mxPoint x="548" y="140" as="targetPoint" />
          </mxGeometry>
        </mxCell>
        <mxCell id="9ugnmiPrSNK5Q0_UZhDV-46" value="" style="endArrow=classic;html=1;rounded=0;dashed=1;strokeColor=#DDA15E;strokeWidth=2;labelBackgroundColor=#283618;fontColor=#FEFAE0;" edge="1" parent="1">
          <mxGeometry width="50" height="50" relative="1" as="geometry">
            <mxPoint x="508" y="199.70999999999998" as="sourcePoint" />
            <mxPoint x="548" y="199.70999999999998" as="targetPoint" />
          </mxGeometry>
        </mxCell>
        <mxCell id="9ugnmiPrSNK5Q0_UZhDV-47" value="" style="endArrow=classic;html=1;rounded=0;dashed=1;entryX=0;entryY=0.5;entryDx=0;entryDy=0;strokeColor=#DDA15E;strokeWidth=2;labelBackgroundColor=#283618;fontColor=#FEFAE0;" edge="1" parent="1">
          <mxGeometry width="50" height="50" relative="1" as="geometry">
            <mxPoint x="508" y="210" as="sourcePoint" />
            <mxPoint x="548" y="250" as="targetPoint" />
          </mxGeometry>
        </mxCell>
        <mxCell id="9ugnmiPrSNK5Q0_UZhDV-48" value="" style="endArrow=classic;html=1;rounded=0;dashed=1;entryX=0;entryY=0.5;entryDx=0;entryDy=0;strokeColor=#DDA15E;strokeWidth=2;labelBackgroundColor=#283618;fontColor=#FEFAE0;" edge="1" parent="1">
          <mxGeometry width="50" height="50" relative="1" as="geometry">
            <mxPoint x="498" y="220" as="sourcePoint" />
            <mxPoint x="548" y="300" as="targetPoint" />
          </mxGeometry>
        </mxCell>
        <mxCell id="9ugnmiPrSNK5Q0_UZhDV-49" value="transfer" style="text;html=1;strokeColor=none;fillColor=none;align=center;verticalAlign=middle;whiteSpace=wrap;rounded=0;fontFamily=Comic Sans MS;fontSize=14;fontColor=#E4FDE1;" vertex="1" parent="1">
          <mxGeometry x="199" y="160" width="60" height="30" as="geometry" />
        </mxCell>
        <mxCell id="9ugnmiPrSNK5Q0_UZhDV-50" value="compile" style="text;html=1;strokeColor=none;fillColor=none;align=center;verticalAlign=middle;whiteSpace=wrap;rounded=0;fontFamily=Comic Sans MS;fontSize=14;fontColor=#E4FDE1;" vertex="1" parent="1">
          <mxGeometry x="419" y="160" width="60" height="30" as="geometry" />
        </mxCell>
        <mxCell id="9ugnmiPrSNK5Q0_UZhDV-58" value="/* editor */" style="text;html=1;strokeColor=none;fillColor=none;align=center;verticalAlign=middle;whiteSpace=wrap;rounded=0;fontFamily=Comic Sans MS;fontSize=18;fontColor=#E4FDE1;" vertex="1" parent="1">
          <mxGeometry x="29" y="40" width="170" height="30" as="geometry" />
        </mxCell>
        <mxCell id="9ugnmiPrSNK5Q0_UZhDV-59" value="/* previewer */" style="text;html=1;strokeColor=none;fillColor=none;align=center;verticalAlign=middle;whiteSpace=wrap;rounded=0;fontFamily=Comic Sans MS;fontSize=18;fontColor=#E4FDE1;" vertex="1" parent="1">
          <mxGeometry x="499" y="40" width="170" height="30" as="geometry" />
        </mxCell>
      </root>
    </mxGraphModel>
  </diagram>
</mxfile>
